<svg width="25" height="24" viewBox="0 0 25 24" fill="none" xmlns="http://www.w3.org/2000/svg">
<path d="M18.1155 11.4181C18.1457 14.6706 20.9687 15.7529 21 15.7667C20.9761 15.8431 20.5489 17.3092 19.5127 18.8235C18.6169 20.1328 17.6872 21.4373 16.2226 21.4643C14.7835 21.4908 14.3208 20.6109 12.6755 20.6109C11.0307 20.6109 10.5166 21.4372 9.15435 21.4908C7.74068 21.5443 6.66418 20.075 5.76095 18.7705C3.9153 16.1022 2.50485 11.2305 4.39873 7.94202C5.33957 6.30895 7.02092 5.27482 8.84588 5.2483C10.2341 5.22182 11.5444 6.18223 12.393 6.18223C13.2411 6.18223 14.8334 5.02725 16.5073 5.19687C17.208 5.22604 19.175 5.47994 20.4381 7.32877C20.3364 7.39186 18.0911 8.69896 18.1155 11.4181ZM15.4109 3.43155C16.1614 2.52306 16.6666 1.25837 16.5287 0C15.4469 0.04348 14.1387 0.720904 13.3628 1.62889C12.6673 2.43296 12.0583 3.71991 12.2226 4.95337C13.4285 5.04667 14.6603 4.34062 15.4109 3.43155Z" fill="black"/>
</svg>
